{"title":"Seventh Son 2014 720p HDRIP x264 AC3 TiTAN","uid":11767872,"size":1985444497,"categoryP":"video","categoryS":"movies","magnet":"?xt=urn:btih:f9eaa822ab3805dce72319c01bd42bd24ffbaf1d&amp;dn=Seventh+Son+2014+720p+HDRIP+x264+AC3+TiTAN&amp;tr=udp%3A%2F%2Ftracker.openbittorrent.com%3A80&amp;tr=udp%3A%2F%2Fopen.demonii.com%3A1337&amp;tr=udp%3A%2F%2Ftracker.coppersurfer.tk%3A6969&amp;tr=udp%3A%2F%2Fexodus.desync.com%3A6969","seeders":7,"leechers":0,"uploader":"TvTeam","files":3,"time":1426934919,"description":" &lt;a href=&quot;https://www.torrenting.com&quot; rel=&quot;nofollow&quot; target=&quot;_NEW&quot;&gt;https://www.torrenting.com&lt;/a&gt;\n\nSign up is OPEN - for the time being. Come and have fun.\n\n.[img]http://i.imgur.com/ty4QqWk.jpg[/img]\n &lt;a href=&quot;\nhttp://www.imdb.com/title/tt1121096/&quot; rel=&quot;nofollow&quot; target=&quot;_NEW&quot;&gt;\nhttp://www.imdb.com/title/tt1121096/&lt;/a&gt;\n\nSource: CHN 1080p WEB_dl\n\nSource Had one very small line of subs so just removed them. No subs or watermarks..Enjoy\n\nGeneral\n\nFormat                                   : Matroska\nFormat version                           : Version 2\nFile size                                : 1.85 GiB\nDuration                                 : 1h 42mn\nOverall bit rate mode                    : Variable\nOverall bit rate                         : 2 586 Kbps\nEncoded date                             : UTC 2015-03-20 21:07:46\n\nVideo\nID                                       : 1\nFormat                                   : AVC\nFormat/Info                              : Advanced Video Codec\nFormat profile                           : &lt;a class=&quot;__cf_email__&quot; href=&quot;/cdn-cgi/l/email-protection&quot; data-cfemail=&quot;0e466769664e423a203f&quot;&gt;[email&amp;#160;protected]&lt;/a&gt;&lt;script cf-hash='f9e31' type=&quot;text/javascript&quot;&gt;\n/* &lt;![CDATA[ */!function(){try{var t=&quot;currentScript&quot;in document?document.currentScript:function(){for(var t=document.getElementsByTagName(&quot;script&quot;),e=t.length;e--;)if(t[e].getAttribute(&quot;cf-hash&quot;))return t[e]}();if(t&amp;&amp;t.previousSibling){var e,r,n,i,c=t.previousSibling,a=c.getAttribute(&quot;data-cfemail&quot;);if(a){for(e=&quot;&quot;,r=parseInt(a.substr(0,2),16),n=2;a.length-n;n+=2)i=parseInt(a.substr(n,2),16)^r,e+=String.fromCharCode(i);e=document.createTextNode(e),c.parentNode.replaceChild(e,c)}}}catch(u){}}();/* ]]&gt; */&lt;/script&gt;\nFormat settings, CABAC                   : Yes\nFormat settings, ReFrames                : 3 frames\nCodec ID                                 : V_MPEG4/ISO/AVC\nDuration                                 : 1h 42mn\nBit rate mode                            : Variable\nBit rate                                 : 2 279 Kbps\nMaximum bit rate                         : 40.0 Mbps\nWidth                                    : 1 280 pixels\nHeight                                   : 512 pixels\nDisplay aspect ratio                     : 2.500\nFrame rate mode                          : Constant\nFrame rate                               : 24.000 fps\nColor space                              : YUV\nChroma subsampling                       : 4:2:0\nBit depth                                : 8 bits\nScan type                                : Progressive\nBits/(Pixel*Frame)                       : 0.145\nStream size                              : 1.63 GiB (88%)\nDefault                                  : Yes\nForced                                   : No\nColor primaries                          : BT.709\nTransfer characteristics                 : BT.709\nMatrix coefficients                      : BT.709\n\nAudio\nID                                       : 2\nFormat                                   : AC-3\nFormat/Info                              : Audio Coding 3\nMode extension                           : CM (complete main)\nFormat settings, Endianness              : Big\nCodec ID                                 : A_AC3\nDuration                                 : 1h 42mn\nBit rate mode                            : Constant\nBit rate                                 : 256 Kbps\nChannel(s)                               : 2 channels\nChannel positions                        : Front: L R\nSampling rate                            : 44.1 KHz\nBit depth                                : 16 bits\nCompression mode                         : Lossy\nStream size                              : 187 MiB (10%)\nDefault                                  : Yes\nForced                                   : No\n\n\n\n[img]http://i.imgur.com/qQPICl1.jpg[/img]\n[img]http://i.imgur.com/2qATMxC.jpg[/img]\n[img]http://i.imgur.com/L6LiTZT.jpg[/img]\n[img]http://i.imgur.com/YuWFHE9.png[/img]\n[img]http://i.imgur.com/lbX3QjS.jpg[/img]\n[img]http://i.imgur.com/dEcOc4s.png[/img]\n[img]http://i.imgur.com/lm2OCSF.png[/img]","torrent":{"xt":"urn:btih:f9eaa822ab3805dce72319c01bd42bd24ffbaf1d","amp;dn":"Seventh+Son+2014+720p+HDRIP+x264+AC3+TiTAN","amp;tr":["udp%3A%2F%2Ftracker.openbittorrent.com%3A80","udp%3A%2F%2Fopen.demonii.com%3A1337","udp%3A%2F%2Ftracker.coppersurfer.tk%3A6969","udp%3A%2F%2Fexodus.desync.com%3A6969"],"infoHash":"f9eaa822ab3805dce72319c01bd42bd24ffbaf1d","infoHashBuffer":{"type":"Buffer","data":[249,234,168,34,171,56,5,220,231,35,25,192,27,212,43,210,79,251,175,29]},"announce":[],"urlList":[]}}